<svg width="0" height="0" class="hidden">
  <symbol xmlns="http://www.w3.org/2000/svg" viewBox="0 0 256 448" id="map-marker">
    <title></title>
    <path d="M192 160c0-35.25-28.75-64-64-64s-64 28.75-64 64 28.75 64 64 64 64-28.75 64-64zm64 0c0 15.25-1.75 31-8.25 44.75l-91 193.5C151.5 409.25 140 416 128 416s-23.5-6.75-28.5-17.75L8.25 204.75C1.75 191 0 175.25 0 160 0 89.25 57.25 32 128 32s128 57.25 128 128z"></path>
  </symbol>
  <symbol xmlns="http://www.w3.org/2000/svg" viewBox="0 0 304 448" id="chevron-right">
    <title></title>
    <path d="M276.75 219.25l-185.5 185.5a15.844 15.844 0 01-22.5 0l-41.5-41.5a15.844 15.844 0 010-22.5L160 208 27.25 75.25a15.844 15.844 0 010-22.5l41.5-41.5a15.844 15.844 0 0122.5 0l185.5 185.5a15.844 15.844 0 010 22.5z"></path>
  </symbol>
</svg>